<?xml version="1.0" encoding="UTF-8" standalone="no"?>
<svg width="80px" height="80px" viewBox="0 0 80 80" version="1.1" xmlns="http://www.w3.org/2000/svg" xmlns:xlink="http://www.w3.org/1999/xlink">
    <!-- Generator: Sketch 3.7.2 (28276) - http://www.bohemiancoding.com/sketch -->
    <title>proyectis</title>
    <desc>Created with Sketch.</desc>
    <defs></defs>
    <g id="Home" stroke="none" stroke-width="1" fill="none" fill-rule="evenodd">
        <g transform="translate(-780.000000, -2343.000000)" id="Group-34" fill="#781513">
            <g transform="translate(0.000000, 2169.000000)">
                <g id="Group-9" transform="translate(135.000000, 144.000000)">
                    <g id="Group-4" transform="translate(600.000000, 0.000000)">
                        <path d="M92.2719533,77.2719533 L50.455242,77.2719533 L50.455242,37.2719533 L92.2719533,37.2719533 L92.2719533,52.5633167 L95.910484,53.3397182 L95.910484,36.7679734 C96.9950624,36.1379986 97.7271953,34.9785042 97.7271953,33.636828 C97.7271953,31.6294215 96.0994764,30 94.0903673,30 L48.636828,30 C46.6277189,30 45,31.6294215 45,33.636828 C45,34.9802069 45.7355382,36.1379986 46.818414,36.7679734 L46.818414,79.0903673 C46.818414,80.0932193 47.6322734,80.9087813 48.6351254,80.9087813 L59.8401652,80.9087813 L53.3020474,105.423318 C52.7861491,107.362619 53.9388328,109.358107 55.8798365,109.875708 C56.194824,109.959137 56.5098114,110 56.819691,110 C58.4252756,110 59.8980547,108.925637 60.3322266,107.299621 L67.370919,80.9087813 L75.3562763,80.9087813 L82.3949687,107.299621 C82.8291406,108.925637 84.2985145,110 85.9058017,110 C86.2173839,110 86.5306687,109.960839 86.8473588,109.875708 C88.7883625,109.358107 89.9393436,107.362619 89.4251479,105.42502 L82.8870302,80.910484 L94.09207,80.910484 C95.0966245,80.910484 95.9087813,80.0949219 95.9087813,79.09207 L95.9087813,68.2173413 L92.2702507,67.4392372 L92.2702507,77.2719533 L92.2719533,77.2719533 Z M69.5451837,50.4520495 L69.5451837,71.3638105 C69.5451837,72.3700677 70.3590431,73.1822245 71.361895,73.1822245 C72.3681522,73.1822245 73.180309,72.368365 73.180309,71.3638105 L73.180309,50.4520495 C73.180309,49.447495 72.3664496,48.6336356 71.361895,48.6336356 C70.3590431,48.6336356 69.5451837,49.447495 69.5451837,50.4520495 Z M61.3623207,43.1817988 L61.3623207,71.3638105 C61.3623207,72.3700677 62.1761801,73.1822245 63.1807347,73.1822245 C64.1852892,73.1822245 64.997446,72.368365 64.997446,71.3638105 L64.997446,43.1817988 C64.997446,42.1772443 64.1835866,41.3633848 63.1807347,41.3633848 C62.1761801,41.3633848 61.3623207,42.1772443 61.3623207,43.1817988 Z M53.182863,55.9106968 L53.182863,71.3655131 C53.182863,72.3700677 53.9967224,73.1839271 54.9995743,73.1839271 C56.0058315,73.1839271 56.8179883,72.368365 56.8179883,71.3655131 L56.8179883,55.9106968 C56.8179883,54.9078449 56.0041289,54.0922828 54.9995743,54.0922828 C53.9950198,54.0922828 53.182863,54.9061423 53.182863,55.9106968 Z M124.776955,77.7895543 L118.099221,60.5044056 C117.562891,59.1031371 116.212702,58.1786064 114.710978,58.1786064 L111.162687,58.1786064 C110.164943,58.1786064 109.293194,58.6144809 108.642787,59.2699953 L110.335206,71.6975269 L107.738688,73.8990338 L105.145575,71.6975269 L106.837994,59.2699953 C106.18248,58.6144809 105.312433,58.1786064 104.314689,58.1786064 L101.152897,58.1786064 L80.3058358,53.7245137 C78.3426978,53.3056655 76.4102073,54.5588048 75.9896565,56.5219427 C75.5708083,58.4867833 76.8222449,60.4192738 78.7870855,60.838122 L100.007023,65.3705359 C100.226663,65.4182097 100.453114,65.4437492 100.677861,65.4488571 L100.677861,82.2691866 L99.2868088,106.14864 C99.1744349,108.152641 100.701698,109.872302 102.709105,109.989784 C102.778913,109.994892 102.852126,109.996595 102.921934,109.996595 C104.833993,109.996595 106.43447,108.505087 106.550249,106.570893 L107.743796,86.0898991 L108.93564,106.570893 C109.048014,108.505087 110.653599,109.996595 112.565658,109.996595 C112.635466,109.996595 112.708679,109.994892 112.778487,109.989784 C114.784191,109.872302 116.313157,108.152641 116.197378,106.14864 L114.808028,82.2691866 L114.808028,72.1419146 L118.002171,80.4099093 C118.725791,82.2862129 120.835355,83.2124463 122.706551,82.4922317 C124.570936,81.7686119 125.502277,79.6641553 124.776955,77.7895543 Z M107.738688,56.3789214 C111.3006,56.3789214 114.196782,53.4878474 114.196782,49.9242328 C114.196782,46.3572128 111.3006,43.4678415 107.738688,43.4678415 C104.178479,43.4678415 101.283999,46.3555102 101.283999,49.9242328 C101.283999,53.4878474 104.178479,56.3789214 107.738688,56.3789214 Z" id="proyectis"></path>
                    </g>
                </g>
            </g>
        </g>
    </g>
</svg>