<?xml version="1.0" encoding="UTF-8" standalone="no"?>
<svg width="80px" height="80px" viewBox="0 0 80 80" version="1.1" xmlns="http://www.w3.org/2000/svg" xmlns:xlink="http://www.w3.org/1999/xlink">
    <!-- Generator: Sketch 3.7.2 (28276) - http://www.bohemiancoding.com/sketch -->
    <title>Fill 1</title>
    <desc>Created with Sketch.</desc>
    <defs></defs>
    <g id="Home" stroke="none" stroke-width="1" fill="none" fill-rule="evenodd">
        <g transform="translate(-580.000000, -2343.000000)" id="Group-34" fill="#781513">
            <g transform="translate(0.000000, 2169.000000)">
                <g id="Group-9" transform="translate(135.000000, 144.000000)">
                    <g id="Group-5" transform="translate(400.000000, 0.000000)">
                        <path d="M87.4713725,69.6060582 L87.4713725,46.9362264 C87.4713725,45.5796647 86.2900654,44.4854691 84.9341176,44.4854691 C83.6660131,44.4854691 82.5284967,45.5796647 82.5284967,46.9362264 L82.5284967,69.9560543 C82.5284967,70 82.6162092,70.1755212 82.6162092,70.306312 C82.5284967,71.0941955 82.7478431,71.7506343 83.2722876,72.2762824 L96.3511111,85.3613749 C97.2262745,86.237019 98.8443137,86.237019 99.7188235,85.3613749 C100.724575,84.35494 100.658431,82.8946611 99.7188235,81.9478668 L87.4713725,69.6060582 Z M115.421438,87.6375265 C112.281438,93.0254519 107.979739,97.2998247 102.561961,100.460122 C97.1769935,103.601847 91.276732,105.186246 84.9351634,105.186246 C80.1678431,105.186246 75.6188235,104.267572 71.2881046,102.385362 C66.9575163,100.504068 63.2184314,98.0308143 60.0905882,94.9021685 C56.9627451,91.7726072 54.4732026,87.9949776 52.611634,83.6545554 C50.7555556,79.3299589 49.8560784,74.7270397 49.8560784,69.9561851 C49.8560784,63.6102174 51.4143791,57.7366659 54.536732,52.3636506 C57.6701961,46.9710168 61.9728105,42.6920662 67.3522876,39.5409244 C72.7308497,36.3899134 78.5928105,34.8138847 84.9342484,34.8138847 C91.276732,34.8138847 97.1759477,36.3991996 102.561046,39.5409244 C107.978824,42.7013524 112.271242,46.9801721 115.420523,52.3635198 C118.569804,57.745952 120.144052,63.6102174 120.144052,69.9560543 C120.144052,76.3021528 118.580131,82.2157263 115.421438,87.6375265 M121.806797,54.4203353 C117.58902,44.5816004 110.421699,37.4261686 100.506275,33.1949567 C95.5504575,31.0802009 90.3584314,30 84.9342484,30 C79.5109804,30 74.3572549,31.0699992 69.4069281,33.1949567 C59.5735948,37.4149206 52.3745098,44.5657747 48.149281,54.4203353 C46.0320261,59.357425 45,64.5298072 45,69.9560543 C45,75.3833477 46.0320261,80.5986293 48.149281,85.5367653 C52.3745098,95.391326 59.5745098,102.585079 69.4069281,106.80609 C74.3581699,108.931047 79.5108497,110 84.9342484,110 C90.3576471,110 95.5504575,108.919799 100.50549,106.80609 C110.420915,102.574747 117.588235,95.3745847 121.806928,85.5367653 C123.930588,80.5828036 125,75.3833477 125,69.9560543 C125,64.5298072 123.931503,59.3741662 121.806797,54.4203353" id="Fill-1"></path>
                    </g>
                </g>
            </g>
        </g>
    </g>
</svg>