<?xml version="1.0" encoding="UTF-8" standalone="no"?>
<svg width="46px" height="60px" viewBox="0 0 46 60" version="1.1" xmlns="http://www.w3.org/2000/svg" xmlns:xlink="http://www.w3.org/1999/xlink">
    <!-- Generator: Sketch 3.7.2 (28276) - http://www.bohemiancoding.com/sketch -->
    <title>guia</title>
    <desc>Created with Sketch.</desc>
    <defs></defs>
    <g id="Guía-de-Estudios" stroke="none" stroke-width="1" fill="none" fill-rule="evenodd">
        <g id="Guias-de-estudio-2" transform="translate(-1260.000000, -150.000000)" fill="#819084">
            <path d="M1300.8125,204.375 L1265.1875,204.375 C1264.67,204.375 1264.25,204.795 1264.25,205.3125 C1264.25,205.83 1264.67,206.25 1265.1875,206.25 L1300.8125,206.25 C1301.33,206.25 1301.75,205.83 1301.75,205.3125 C1301.75,204.795 1301.33,204.375 1300.8125,204.375 M1303.625,208.125 L1265.1875,208.125 C1263.63438,208.125 1262.375,206.865625 1262.375,205.3125 C1262.375,203.759375 1263.63438,202.5 1265.1875,202.5 L1299.875,202.5 C1300.91062,202.5 1301.75,201.660625 1301.75,200.625 L1301.75,155.625 L1303.625,155.625 L1303.625,206.25 L1303.625,208.125 Z M1262.375,154.6875 C1262.375,153.13375 1263.63375,151.875 1265.1875,151.875 L1268,151.875 L1268,166.875625 L1271.75,163.125 L1275.5,166.875625 L1275.5,151.875 L1299.875,151.875 L1299.875,153.75 L1299.875,155.625 L1299.875,200.625 L1265.1875,200.625 C1264.1325,200.625 1263.15812,200.974375 1262.375,201.5625 L1262.375,154.6875 Z M1273.625,151.875 L1273.625,162.34875 L1271.75,160.473125 L1269.875,162.34875 L1269.875,151.875 L1273.625,151.875 Z M1304.5625,153.75 L1301.75,153.75 L1301.75,151.875 C1301.75,150.839375 1300.91062,150 1299.875,150 L1275.5,150 L1268,150 L1265.1875,150 C1262.59812,150 1260.5,152.098125 1260.5,154.6875 L1260.5,205.3125 C1260.5,207.90125 1262.59812,210 1265.1875,210 L1303.625,210 C1304.66062,210 1305.5,209.160625 1305.5,208.125 L1305.5,154.6875 C1305.5,154.17 1305.08,153.75 1304.5625,153.75 L1304.5625,153.75 Z" id="guia"></path>
        </g>
    </g>
</svg>