<?xml version="1.0" encoding="UTF-8" standalone="no"?>
<svg width="56px" height="60px" viewBox="0 0 56 60" version="1.1" xmlns="http://www.w3.org/2000/svg" xmlns:xlink="http://www.w3.org/1999/xlink">
    <!-- Generator: Sketch 3.7.2 (28276) - http://www.bohemiancoding.com/sketch -->
    <title>noticias</title>
    <desc>Created with Sketch.</desc>
    <defs></defs>
    <g id="Infraestructura" stroke="none" stroke-width="1" fill="none" fill-rule="evenodd">
        <g id="Infra-selected" transform="translate(-388.000000, -110.000000)" fill="#819084">
            <path d="M442.731114,117.475806 L432.562542,117.475806 L432.562542,114.753141 C432.562542,114.24437 432.14878,113.831454 431.638966,113.831454 L426.761561,113.831454 L426.761561,110.921687 C426.761561,110.412916 426.347799,110 425.837985,110 L388.923576,110 C388.413762,110 388,110.412916 388,110.921687 L388,162.126947 C388,162.279025 388.046179,162.417279 388.111753,162.54355 C388.754562,166.757504 392.398993,170 396.797985,170 L433.586788,170 C433.615419,170 433.639432,169.986175 433.668063,169.98341 C433.683764,169.984331 433.696694,169.992627 433.712394,169.992627 C439.194742,169.992627 443.65469,165.540877 443.65469,160.069741 L443.65469,118.397493 C443.65469,117.888722 443.240928,117.475806 442.731114,117.475806 Z M441.808462,160.070663 C441.808462,164.41181 438.356135,167.954776 434.048576,168.132662 C433.944212,168.091186 433.831536,168.064457 433.712394,168.064457 C429.880478,168.064457 426.762485,164.95284 426.762485,161.12876 L426.762485,118.803035 C426.762485,118.801192 426.761561,118.80027 426.761561,118.798427 L426.761561,115.674829 L430.71539,115.674829 L430.71539,160.334265 C430.71539,162.367507 432.372286,164.021014 434.409694,164.021014 C436.447103,164.021014 438.103998,162.367507 438.103998,160.335187 L438.103998,123.048327 C438.103998,122.539556 437.690236,122.12664 437.180422,122.12664 L432.562542,122.12664 L432.562542,119.31918 L441.808462,119.31918 L441.808462,160.070663 Z M389.848076,161.220928 L389.848076,118.895204 C389.848076,118.893361 389.847152,118.892439 389.847152,118.890596 L389.847152,111.843375 L424.914409,111.843375 L424.914409,162.126947 C424.914409,162.291007 424.9689,162.437556 425.044634,162.570279 C425.424223,164.84869 426.682134,166.828474 428.462788,168.156625 L396.797985,168.156625 C392.966068,168.156625 389.848076,165.045009 389.848076,161.220928 Z M432.562542,123.970014 L436.256846,123.970014 L436.256846,160.335187 C436.256846,161.351808 435.428399,162.178562 434.409694,162.178562 C433.39099,162.178562 432.562542,161.351808 432.562542,160.335187 L432.562542,123.970014 Z M421.47178,143.764171 L394.302944,143.764171 C393.79313,143.764171 393.379368,143.351255 393.379368,142.842484 C393.379368,142.333712 393.79313,141.920796 394.302944,141.920796 L421.47178,141.920796 C421.981594,141.920796 422.395356,142.333712 422.395356,142.842484 C422.395356,143.351255 421.981594,143.764171 421.47178,143.764171 Z M421.47178,140 L394.302944,140 C393.79313,140 393.379368,139.587084 393.379368,139.078313 C393.379368,138.569541 393.79313,138.156625 394.302944,138.156625 L421.47178,138.156625 C421.981594,138.156625 422.395356,138.569541 422.395356,139.078313 C422.395356,139.587084 421.981594,140 421.47178,140 Z M421.47178,136.467173 L394.302944,136.467173 C393.79313,136.467173 393.379368,136.054257 393.379368,135.545485 C393.379368,135.036714 393.79313,134.623798 394.302944,134.623798 L421.47178,134.623798 C421.981594,134.623798 422.395356,135.036714 422.395356,135.545485 C422.395356,136.054257 421.981594,136.467173 421.47178,136.467173 Z M421.47178,132.934345 L394.302944,132.934345 C393.79313,132.934345 393.379368,132.521429 393.379368,132.012658 C393.379368,131.503886 393.79313,131.090971 394.302944,131.090971 L421.47178,131.090971 C421.981594,131.090971 422.395356,131.503886 422.395356,132.012658 C422.395356,132.521429 421.981594,132.934345 421.47178,132.934345 Z M404.847412,158.592276 L394.302944,158.592276 C393.830997,158.592276 393.448637,158.210698 393.448637,157.739716 C393.448637,157.268733 393.830997,156.887155 394.302944,156.887155 L404.847412,156.887155 C405.319359,156.887155 405.70172,157.268733 405.70172,157.739716 C405.70172,158.210698 405.319359,158.592276 404.847412,158.592276 Z M404.847412,154.982027 L394.302944,154.982027 C393.830997,154.982027 393.448637,154.600449 393.448637,154.129466 C393.448637,153.658484 393.830997,153.276906 394.302944,153.276906 L404.847412,153.276906 C405.319359,153.276906 405.70172,153.658484 405.70172,154.129466 C405.70172,154.600449 405.319359,154.982027 404.847412,154.982027 Z M404.847412,151.064856 L394.302944,151.064856 C393.830997,151.064856 393.448637,150.683278 393.448637,150.212295 C393.448637,149.741313 393.830997,149.359735 394.302944,149.359735 L404.847412,149.359735 C405.319359,149.359735 405.70172,149.741313 405.70172,150.212295 C405.70172,150.683278 405.319359,151.064856 404.847412,151.064856 Z M404.847412,147.455529 L394.302944,147.455529 C393.830997,147.455529 393.448637,147.07395 393.448637,146.602968 C393.448637,146.131986 393.830997,145.750407 394.302944,145.750407 L404.847412,145.750407 C405.319359,145.750407 405.70172,146.131986 405.70172,146.602968 C405.70172,147.07395 405.319359,147.455529 404.847412,147.455529 Z M421.47178,129.255891 L410.18291,129.255891 C409.710963,129.255891 409.328602,128.874313 409.328602,128.40333 C409.328602,127.932348 409.710963,127.55077 410.18291,127.55077 L421.47178,127.55077 C421.943727,127.55077 422.326088,127.932348 422.326088,128.40333 C422.326088,128.874313 421.943727,129.255891 421.47178,129.255891 Z M421.47178,125.645642 L410.18291,125.645642 C409.710963,125.645642 409.328602,125.264063 409.328602,124.793081 C409.328602,124.322099 409.710963,123.94052 410.18291,123.94052 L421.47178,123.94052 C421.943727,123.94052 422.326088,124.322099 422.326088,124.793081 C422.326088,125.264063 421.943727,125.645642 421.47178,125.645642 Z M421.47178,121.728471 L410.18291,121.728471 C409.710963,121.728471 409.328602,121.346892 409.328602,120.87591 C409.328602,120.404928 409.710963,120.023349 410.18291,120.023349 L421.47178,120.023349 C421.943727,120.023349 422.326088,120.404928 422.326088,120.87591 C422.326088,121.346892 421.943727,121.728471 421.47178,121.728471 Z M421.47178,118.118222 L410.18291,118.118222 C409.710963,118.118222 409.328602,117.736643 409.328602,117.265661 C409.328602,116.794679 409.710963,116.4131 410.18291,116.4131 L421.47178,116.4131 C421.943727,116.4131 422.326088,116.794679 422.326088,117.265661 C422.326088,117.736643 421.943727,118.118222 421.47178,118.118222 Z M421.472242,158.587668 L410.333915,158.587668 C409.824101,158.587668 409.410339,158.174752 409.410339,157.665981 L409.410339,146.675781 C409.410339,146.16701 409.824101,145.754094 410.333915,145.754094 L421.473165,145.754094 C421.982979,145.754094 422.396741,146.16701 422.396741,146.675781 L422.396741,157.665981 C422.395818,158.175674 421.982056,158.587668 421.472242,158.587668 Z M411.257491,156.744293 L420.549589,156.744293 L420.549589,147.597468 L411.257491,147.597468 L411.257491,156.744293 Z M405.503612,129.177548 L394.020792,129.177548 C393.510978,129.177548 393.097216,128.764632 393.097216,128.25586 L393.097216,117.265661 C393.097216,116.75689 393.510978,116.343974 394.020792,116.343974 L405.503612,116.343974 C406.01435,116.343974 406.427188,116.75689 406.427188,117.265661 L406.427188,128.25586 C406.427188,128.765553 406.015274,129.177548 405.503612,129.177548 Z M394.944368,127.334173 L404.58096,127.334173 L404.58096,118.187348 L394.944368,118.187348 L394.944368,127.334173 Z" id="noticias"></path>
        </g>
    </g>
</svg>