<?xml version="1.0" encoding="UTF-8" standalone="no"?>
<svg width="86px" height="80px" viewBox="0 0 86 80" version="1.1" xmlns="http://www.w3.org/2000/svg" xmlns:xlink="http://www.w3.org/1999/xlink">
    <!-- Generator: Sketch 3.7.2 (28276) - http://www.bohemiancoding.com/sketch -->
    <title>resultados</title>
    <desc>Created with Sketch.</desc>
    <defs></defs>
    <g id="Home" stroke="none" stroke-width="1" fill="none" fill-rule="evenodd">
        <g transform="translate(-980.000000, -2343.000000)" id="Group-34" fill="#781513">
            <g transform="translate(0.000000, 2169.000000)">
                <g id="Group-9" transform="translate(135.000000, 144.000000)">
                    <g id="Group-3" transform="translate(800.000000, 0.000000)">
                        <path d="M45,110 L70.164838,110 L70.164838,76.4612896 L45,76.4612896 L45,110 Z M57.1441765,50.8008279 L60.7078382,57.9797025 L68.6896415,59.1356942 L62.9242723,64.7164074 L64.2825025,72.6018801 L57.1441765,68.8802286 L50.0058504,72.605576 L51.3678046,64.7201034 L45.5988807,59.1392222 L53.57696,57.9832305 L57.1441765,50.8008279 Z M87.6802024,30 L84.1128167,37.1788746 L76.1347373,38.3313384 L81.9038305,43.9192755 L80.545431,51.8010522 L87.6839263,48.0795687 L94.8222524,51.8010522 L93.4602982,43.9192755 L99.2293914,38.3313384 L91.2474188,37.1788746 L87.6802024,30 Z M117.69748,42.43337 L121.261142,49.6085487 L129.242945,50.7608445 L123.473852,56.3452536 L124.832083,64.2344222 L117.69748,60.5090748 L110.562878,64.2344222 L111.921109,56.3452536 L106.152015,50.7608445 L114.12654,49.6083807 L117.69748,42.43337 Z M74.9589304,110 L100.131216,110 L100.131216,55.3379398 L74.9589304,55.3379398 L74.9589304,110 Z M104.921585,109.999832 L130.086592,109.999832 L130.086592,67.8435152 L104.921585,67.8435152 L104.921585,109.999832 Z" id="resultados"></path>
                    </g>
                </g>
            </g>
        </g>
    </g>
</svg>