<?xml version="1.0" encoding="UTF-8" standalone="no"?>
<svg width="80px" height="80px" viewBox="0 0 80 80" version="1.1" xmlns="http://www.w3.org/2000/svg" xmlns:xlink="http://www.w3.org/1999/xlink">
    <!-- Generator: Sketch 3.7.2 (28276) - http://www.bohemiancoding.com/sketch -->
    <title>Page 1</title>
    <desc>Created with Sketch.</desc>
    <defs></defs>
    <g id="Home" stroke="none" stroke-width="1" fill="none" fill-rule="evenodd">
        <g transform="translate(-180.000000, -2343.000000)" id="Group-34" fill="#781513">
            <g transform="translate(0.000000, 2169.000000)">
                <g id="Group-9" transform="translate(135.000000, 144.000000)">
                    <g id="Group-7">
                        <path d="M102.5,80 C101.1175,80 100,81.1175 100,82.5 C100,83.8825 101.1175,85 102.5,85 C112.1475,85 120,92.8525 120,102.5 C120,103.8775 118.8775,105 117.5,105 L52.5,105 C51.1225,105 50,103.8775 50,102.5 C50,92.8525 57.8525,85 67.5,85 C68.8825,85 70,83.8825 70,82.5 C70,81.1175 68.8825,80 67.5,80 C55.0925,80 45,90.0925 45,102.5 C45,106.635 48.365,110 52.5,110 L117.5,110 C121.635,110 125,106.635 125,102.5 C125,90.095 114.9075,80 102.5,80 M85,35.0025 C94.6475,35.0025 102.5,45.095 102.5,57.5025 C102.5,69.9075 94.6475,80.0025 85,80.0025 C75.3525,80.0025 67.5,69.9075 67.4975,57.5025 C67.4975,45.095 75.35,35.0025 85,35.0025 M85,85 C97.4075,85 107.5,72.66 107.5,57.5 C107.5,42.34 97.405,30 85,30 C78.8825,30 73.165,32.935 68.905,38.2625 C64.7725,43.425 62.5,50.26 62.5,57.5025 C62.5,72.66 72.5925,85 85,85" id="Page-1"></path>
                    </g>
                </g>
            </g>
        </g>
    </g>
</svg>