<?xml version="1.0" encoding="UTF-8" standalone="no"?>
<svg width="30px" height="40px" viewBox="0 0 30 40" version="1.1" xmlns="http://www.w3.org/2000/svg" xmlns:xlink="http://www.w3.org/1999/xlink">
    <!-- Generator: Sketch 3.7.2 (28276) - http://www.bohemiancoding.com/sketch -->
    <title>doc</title>
    <desc>Created with Sketch.</desc>
    <defs></defs>
    <g id="Guía-de-Estudios" stroke="none" stroke-width="1" fill="none" fill-rule="evenodd">
        <g id="Guias-de-estudio-2" transform="translate(-235.000000, -852.000000)" fill="#819084">
            <g id="Group-15" transform="translate(235.000000, 852.000000)">
                <path d="M29.0118772,9.58544087 C29.0095533,9.40199927 28.9513836,9.22080893 28.8253855,9.07759957 L21.1127774,0.268263369 C21.1112523,0.265794242 21.1089284,0.264995407 21.1066772,0.262744144 C21.0607078,0.21140083 21.0079121,0.169062567 20.9511948,0.131735179 C20.9343466,0.120841972 20.9174259,0.111038086 20.8998515,0.101088958 C20.8500332,0.0745095334 20.7986899,0.0524326346 20.7450953,0.0363106888 C20.7305711,0.0320986489 20.7175718,0.0261436959 20.7029749,0.0223673843 C20.644079,0.00827883704 20.5843116,-3.55271368e-15 20.5230192,-3.55271368e-15 L1.56862176,-3.55271368e-15 C0.703846391,-3.55271368e-15 0,0.703919013 0,1.56869438 L0,38.4313056 C0,39.2964441 0.703846391,40 1.56862176,40 L27.4508807,40 C28.3163823,40 29.0195751,39.2964441 29.0195751,38.4313056 L29.0195751,9.67331273 C29.0195025,9.64382845 29.0149273,9.61492515 29.0118772,9.58544087 Z M1.56862176,26.6340355 L1.56862176,1.56869438 L19.7387083,1.56869438 L19.7387083,9.59444592 C19.7387083,10.0273419 20.0895422,10.3787568 20.5230192,10.3787568 L27.4508807,10.3787568 L27.4516796,26.6340355 L1.56862176,26.6340355 Z M24.9953341,35.9060425 C25.5980915,35.9060425 26.2667892,35.7743073 26.6596708,35.6175904 L26.9614126,37.1770618 C26.5945294,37.3613022 25.768897,37.5573073 24.6942458,37.5573073 C21.6405169,37.5573073 20.0680462,35.6566607 20.0680462,33.1406204 C20.0680462,30.126688 22.2172759,28.4489889 24.8903236,28.4489889 C25.9259044,28.4489889 26.7124665,28.6585016 27.0663505,28.8423063 L26.6595982,30.4277762 C26.2540078,30.257697 25.6898849,30.0998907 24.9825527,30.0998907 C23.3970828,30.0998907 22.1643349,31.0569678 22.1643349,33.0226833 C22.1644802,34.7915948 23.2129876,35.9060425 24.9953341,35.9060425 Z M14.8244923,37.5703792 C12.2035141,37.5703792 10.6701138,35.5912288 10.6701138,33.0747528 C10.6701138,30.4273405 12.3607394,28.4485532 14.9685005,28.4485532 C17.6813447,28.4485532 19.1627481,30.4802089 19.1627481,32.9173823 C19.1628208,35.8141038 17.4064727,37.5703792 14.8244923,37.5703792 Z M8.29728287,36.3770647 C7.36671254,37.1506276 5.95124927,37.5175108 4.22082708,37.5175108 C3.185101,37.5175108 2.4513346,37.4516432 1.9536603,37.3865019 L1.9536603,28.7108616 C2.6874267,28.5929245 3.64428597,28.5270569 4.65372312,28.5270569 C6.33091383,28.5270569 7.41870945,28.8288714 8.27048558,29.4706991 C9.18827455,30.152396 9.76496091,31.2399737 9.76496091,32.7994452 C9.76467043,34.4902161 9.14905901,35.6562975 8.29728287,36.3770647 Z M21.0209113,22.2969416 L6.82190696,22.2969416 C6.53490728,22.2969416 6.30186528,22.5297657 6.30186528,22.8169832 C6.30186528,23.1038377 6.53490728,23.3362987 6.82190696,23.3362987 L21.0209113,23.3362987 C21.3081289,23.3362987 21.5410256,23.1038377 21.5410256,22.8169832 C21.5410256,22.5297657 21.3085646,22.2969416 21.0209113,22.2969416 Z M21.0209113,18.0717572 L6.82190696,18.0717572 C6.53490728,18.0717572 6.30186528,18.3042182 6.30186528,18.5914358 C6.30186528,18.8784354 6.53490728,19.1108965 6.82190696,19.1108965 L21.0209113,19.1108965 C21.3081289,19.1108965 21.5410256,18.8784354 21.5410256,18.5914358 C21.5410256,18.3042182 21.3085646,18.0717572 21.0209113,18.0717572 Z M8.30592482,11.868657 L8.78711406,9.91245493 C8.9102073,9.43758374 8.99081703,9.03649587 9.06518132,8.59219829 L9.07723647,8.59219829 C9.1262559,9.0423782 9.2003297,9.43758374 9.30512235,9.91245493 L9.73765527,11.868657 L10.5526124,11.868657 L11.6685851,7.70984855 L10.8972734,7.70984855 L10.4654667,9.59175893 C10.3544286,10.0980025 10.2551552,10.5725106 10.1815171,11.0298074 L10.1686631,11.0298074 C10.1073707,10.5792644 10.020806,10.1164484 9.916086,9.62276825 L9.5026525,7.71028428 L8.7067222,7.71028428 L8.25690539,9.59219465 C8.1387504,10.116521 8.02081329,10.6107095 7.95378376,11.0482533 L7.94230958,11.0482533 C7.87448121,10.6350376 7.77535303,10.1040301 7.67019728,9.59814961 L7.2752096,7.71028428 L6.46678843,7.71028428 L7.48508538,11.8690927 L8.30592482,11.8690927 L8.30592482,11.868657 Z M21.0209113,13.9450474 L6.82190696,13.9450474 C6.53490728,13.9450474 6.30186528,14.1775084 6.30186528,14.4645081 C6.30186528,14.7517257 6.53490728,14.9838236 6.82190696,14.9838236 L21.0209113,14.9838236 C21.3081289,14.9838236 21.5410256,14.7517257 21.5410256,14.4645081 C21.5410256,14.1775811 21.3085646,13.9450474 21.0209113,13.9450474 Z M12.5215958,10.8277748 L18.2290551,10.8277748 C18.5155464,10.8277748 18.7483706,10.5953137 18.7483706,10.3083141 C18.7483706,10.0213144 18.5155464,9.78863548 18.2290551,9.78863548 L12.5215958,9.78863548 C12.2345235,9.78863548 12.0026434,10.0213144 12.0026434,10.3083141 C12.0022803,10.5953137 12.2339425,10.8277748 12.5215958,10.8277748 Z M4.86345365,30.0604573 C4.41763102,30.0604573 4.12888842,30.0995276 3.95888178,30.1385979 L3.95888178,35.9182429 C4.12888842,35.958112 4.40463179,35.958112 4.65336001,35.958112 C6.46148707,35.9711838 7.6410761,34.9746733 7.6410761,32.8653128 C7.65487417,31.0300979 6.57993253,30.0604573 4.86345365,30.0604573 Z M14.9164309,30.0343862 C13.5670531,30.0343862 12.7802731,31.3188405 12.7802731,33.0352468 C12.7802731,34.7654511 13.5929063,35.9840378 14.9295028,35.9840378 C16.2798247,35.9840378 17.0526614,34.6995835 17.0526614,32.9831773 C17.0526614,31.3969811 16.2928239,30.0343862 14.9164309,30.0343862 Z" id="doc"></path>
            </g>
        </g>
    </g>
</svg>