<?xml version="1.0" encoding="UTF-8" standalone="no"?>
<svg width="30px" height="40px" viewBox="0 0 30 40" version="1.1" xmlns="http://www.w3.org/2000/svg" xmlns:xlink="http://www.w3.org/1999/xlink">
    <!-- Generator: Sketch 3.7.2 (28276) - http://www.bohemiancoding.com/sketch -->
    <title>pdf</title>
    <desc>Created with Sketch.</desc>
    <defs></defs>
    <g id="Guía-de-Estudios" stroke="none" stroke-width="1" fill="none" fill-rule="evenodd">
        <g id="Guias-de-estudio-2" transform="translate(-235.000000, -792.000000)" fill="#819084">
            <g id="Group-17" transform="translate(235.000000, 792.000000)">
                <path d="M29.0118772,9.58544087 C29.0095533,9.40199927 28.9513836,9.22080893 28.8253855,9.07759957 L21.1127774,0.268263369 C21.1112523,0.265794242 21.1082748,0.264995407 21.1066772,0.262744144 C21.0607078,0.21140083 21.0079121,0.169062567 20.9511948,0.131735179 C20.9343466,0.120841972 20.9166996,0.111038086 20.8990527,0.101088958 C20.8500332,0.0745095334 20.7986899,0.0524326346 20.7443691,0.0363106888 C20.7305711,0.0320986489 20.716773,0.0261436959 20.7022487,0.0223673843 C20.644079,0.00827883704 20.5835854,0 20.5230192,0 L1.56862176,0 C0.703846391,0 -7.10542736e-15,0.703919013 -7.10542736e-15,1.56869438 L-7.10542736e-15,38.4313056 C-7.10542736e-15,39.2964441 0.703846391,40 1.56862176,40 L27.4508807,40 C28.3156561,40 29.0195751,39.2964441 29.0195751,38.4313056 L29.0195751,9.67331273 C29.0195025,9.64382845 29.0149273,9.61492515 29.0118772,9.58544087 Z M1.56862176,26.6340355 L1.56862176,1.56869438 L19.7387083,1.56869438 L19.7387083,9.59444592 C19.7387083,10.0273419 20.0895422,10.3787568 20.5230192,10.3787568 L27.4508807,10.3787568 L27.4516796,26.6340355 L1.56862176,26.6340355 Z M22.556563,16.8579635 C22.5105936,16.8536788 21.4053689,16.7528077 19.7088609,16.7528077 C19.177345,16.7528077 18.6419802,16.7631926 18.1134419,16.7830908 C14.7631998,14.2689387 12.0191285,11.7528259 10.5500706,10.3427366 C10.5768679,10.1874721 10.5953137,10.064742 10.6038831,9.97047941 C10.7976369,7.92509831 10.5822419,6.54427544 9.96583164,5.86628226 C9.56220203,5.42321923 8.96939372,5.27579784 8.35124055,5.44464254 C7.96736395,5.54522315 7.25676377,5.91762557 7.029241,6.67572013 C6.77804365,7.51348034 7.18181851,8.53025225 8.24259897,9.70933294 C8.25944713,9.7271978 8.6194313,10.1043932 9.27353205,10.743534 C8.84840651,12.7706145 7.73555652,17.1449632 7.19561657,19.2455365 C5.92742946,19.9231666 4.87078841,20.7394309 4.05278122,21.6758109 L3.99918664,21.7371034 L3.96454624,21.8106688 C3.88030545,21.9876471 3.47761991,22.9063075 3.7799427,23.644286 C3.91799594,23.9797967 4.17667329,24.2248939 4.52808813,24.353579 L4.62227806,24.3789238 C4.62227806,24.3789238 4.70724507,24.397297 4.85662725,24.397297 C5.51094586,24.397297 7.12604529,24.0534348 7.99234571,20.8609991 L8.20222149,20.0521421 C11.226103,18.5823581 15.0059731,18.1082131 17.7457598,17.9761148 C19.1550503,19.0212091 20.5574417,19.9812637 21.9162603,20.8314422 L21.960632,20.8571501 C22.0264995,20.8908464 22.6223579,21.1850356 23.3201768,21.1856892 C24.3174135,21.1856892 25.0458059,20.5737089 25.3169742,19.5071913 L25.3306996,19.4342795 C25.4065163,18.8247682 25.2533578,18.2753875 24.8879997,17.8459047 C24.1183583,16.9411876 22.6853207,16.8623208 22.556563,16.8579635 Z M24.1673778,19.2533796 C23.9866231,19.9175747 23.638912,20.0083515 23.3202494,20.0083515 C22.9503161,20.0083515 22.5941808,19.8543941 22.5129901,19.817212 C21.5877212,19.2372577 20.6411015,18.6053064 19.6859125,17.9292014 L19.7088609,17.9292014 C21.3464003,17.9292014 22.4371008,18.0286201 22.4799474,18.0316702 C22.7534395,18.0418372 23.6189411,18.1696508 23.9919245,18.6081387 C24.138184,18.7800335 24.194175,18.9854794 24.1673778,19.2533796 Z M8.57760139,18.5960109 L8.59524838,18.5286183 L8.5929245,18.5294171 C9.1045421,16.5255754 9.8423753,13.5914539 10.2666294,11.7067113 L10.2819525,11.7213082 L10.2834775,11.7123032 C11.6560216,13.0048184 13.7605891,14.8953708 16.2804783,16.8616672 L16.2521559,16.8628291 L16.2938406,16.8942742 C13.919993,17.0947818 11.0847092,17.5627539 8.57760139,18.5960109 Z M9.1055588,8.91027992 C8.08377602,7.7728839 8.09909913,7.20897891 8.15407351,7.01914663 C8.24426927,6.70186383 8.65138471,6.58196593 8.65487053,6.58087661 C8.8599533,6.52510339 8.98442635,6.53606922 9.09524657,6.65771003 C9.34586294,6.93301767 9.5611127,7.76387885 9.47607307,9.28791108 C9.23482486,9.04550092 9.1055588,8.91027992 9.1055588,8.91027992 Z M4.88102803,23.2202497 C4.87492783,23.2129876 4.87202298,23.2061612 4.86897288,23.1984633 C4.80390413,23.041819 4.88197211,22.661864 4.99685913,22.3835062 C5.49010352,21.8320195 6.08218561,21.3257759 6.76540753,20.8700041 C6.10005047,23.0238089 5.13244324,23.2100101 4.88102803,23.2202497 Z M26.432148,30.2994543 L22.7755891,30.2994543 L22.7755891,32.4731573 L26.191626,32.4731573 L26.191626,34.2240587 L22.7755891,34.2240587 L22.7755891,38.0490993 L20.6164829,38.0490993 L20.6164829,28.535481 L26.432148,28.535481 L26.432148,30.2994543 Z M17.6217225,36.9201274 C16.6206368,37.7526589 15.0960962,38.1478644 13.2333579,38.1478644 C12.1179662,38.1478644 11.3279182,38.0774217 10.7905926,38.0069789 L10.7905926,28.6618422 C11.5812216,28.535481 12.6121546,28.4642394 13.6987883,28.4642394 C15.5046641,28.4642394 16.6765553,28.7890022 17.5945621,29.4805756 C18.5829391,30.2147051 19.2041423,31.3862332 19.2041423,33.065893 C19.2033435,34.8873098 18.5400198,36.1434417 17.6217225,36.9201274 Z M8.5447039,33.6870963 C7.81093751,34.3786696 6.72394073,34.689707 5.45328448,34.689707 C5.1713683,34.689707 4.91653988,34.6751827 4.71966333,34.6475866 L4.71966333,38.0490993 L2.5882259,38.0490993 L2.5882259,28.6618422 C3.25133169,28.5492791 4.1834997,28.4642394 5.4964942,28.4642394 C6.82306891,28.4642394 7.76896235,28.7184869 8.40396367,29.2263282 C9.01129626,29.7065007 9.41957364,30.4969844 9.41957364,31.4283536 C9.41957364,32.3604489 9.10977084,33.1509326 8.5447039,33.6870963 Z M5.60905734,30.0879808 C5.1717314,30.0879808 4.87529094,30.1301012 4.71959071,30.1722216 L4.71959071,32.9816522 C4.90339541,33.0237726 5.12939314,33.0382969 5.43876021,33.0382969 C6.58305525,33.0382969 7.28849932,32.4592866 7.28849932,31.4853613 C7.28857194,30.6103464 6.68123936,30.0879808 5.60905734,30.0879808 Z M13.9245682,30.11594 C13.444323,30.11594 13.1341571,30.1584235 12.9504976,30.2005439 L12.9504976,36.4256484 C13.1345202,36.4682045 13.4309607,36.4682045 13.6987883,36.4682045 C15.6463484,36.48193 16.9170047,35.4096753 16.9170047,33.1367715 C16.9308027,31.1603081 15.7735811,30.11594 13.9245682,30.11594 Z" id="pdf"></path>
            </g>
        </g>
    </g>
</svg>