<?xml version="1.0" encoding="UTF-8" standalone="no"?>
<svg width="14px" height="20px" viewBox="0 0 14 20" version="1.1" xmlns="http://www.w3.org/2000/svg" xmlns:xlink="http://www.w3.org/1999/xlink">
    <!-- Generator: Sketch 3.7.2 (28276) - http://www.bohemiancoding.com/sketch -->
    <title>Page 1</title>
    <desc>Created with Sketch.</desc>
    <defs></defs>
    <g id="Actividades-Extraprogramaticas" stroke="none" stroke-width="1" fill="none" fill-rule="evenodd">
        <g id="A.-EXTRAPROGRAMATICAS" transform="translate(-958.000000, -1007.000000)" fill="#458845">
            <g id="Group-13-Copy-2" transform="translate(935.000000, 672.000000)">
                <g id="Group-11" transform="translate(23.000000, 335.000000)">
                    <path d="M5.28133748,12.3629266 C3.05657567,12.3629266 1.24759239,10.5542002 1.24759239,8.32892473 C1.24759239,6.10621742 3.05657567,4.29723414 5.28133748,4.29723414 C7.50609928,4.29723414 9.31508257,6.10621742 9.31508257,8.32892473 C9.31508257,10.5542002 7.5063561,12.3629266 5.28133748,12.3629266 L5.28133748,12.3629266 Z M8.65815763,0.00179768356 L8.65815763,1.24939007 L11.4797504,1.24939007 L8.545674,4.18320964 C7.64529135,3.47415188 6.51223709,3.04989856 5.28133748,3.04989856 C2.37037417,3.04989856 0,5.41821824 0,8.32918154 C0,11.0303295 2.0396004,13.2633093 4.65754128,13.5727677 L4.65754128,15.2656719 L2.51598654,15.2656719 L2.51598654,16.5130075 L4.65754128,16.5130075 L4.65754128,20 L5.90513367,20 L5.90513367,16.5132643 L8.04694522,16.5132643 L8.04694522,15.2659288 L5.90513367,15.2659288 L5.90513367,13.5730245 C8.52281774,13.2635661 10.5629318,11.0305863 10.5629318,8.32943835 C10.5629318,7.09879555 10.1384216,5.96522766 9.42730938,5.06510183 L12.3634403,2.13128226 L12.3634403,4.95492951 L13.609235,4.95492951 L13.6112895,0 L8.65815763,0.00179768356 Z" id="Page-1"></path>
                </g>
            </g>
        </g>
    </g>
</svg>