<?xml version="1.0" encoding="UTF-8" standalone="no"?>
<svg width="57px" height="75px" viewBox="0 0 57 75" version="1.1" xmlns="http://www.w3.org/2000/svg" xmlns:xlink="http://www.w3.org/1999/xlink">
    <!-- Generator: Sketch 3.6.1 (26313) - http://www.bohemiancoding.com/sketch -->
    <title>Group 8</title>
    <desc>Created with Sketch.</desc>
    <defs>
        <path id="path-1" d="M56.173913,37.4763283 L56.173913,0.0963268992 L0,0.0963268992 L0,37.4763283 L0,74.8563297 L56.173913,74.8563297 L56.173913,37.4763283 L56.173913,37.4763283 Z"></path>
        <path id="path-3" d="M0,74.8564457 L56.173913,74.8564457 L56.173913,0.0963268992 L0,0.0963268992 L0,74.8564457 Z"></path>
    </defs>
    <g id="Home" stroke="none" stroke-width="1" fill="none" fill-rule="evenodd">
        <g transform="translate(-692.000000, -35.000000)" id="Group-8">
            <g transform="translate(692.000000, 35.000000)">
                <rect id="Rectangle-119" fill="#FFFFFF" x="5" y="16" width="46" height="50"></rect>
                <rect id="Rectangle-120" fill="#FFFFFF" x="2" y="7" width="53" height="7"></rect>
                <path d="M35,73 L21,73 L28,66 L35,73 Z" id="Triangle-1" fill="#FFFFFF" transform="translate(28.000000, 69.500000) rotate(-180.000000) translate(-28.000000, -69.500000) "></path>
                <polygon id="Triangle-1" fill="#FFFFFF" points="28 3 34 7 22 7 "></polygon>
                <g id="Page-1">
                    <path d="M5.79112506,25.5857881 L52.1201255,25.5857881 L52.1201255,22.6843755 L9.26580009,22.6843755 L5.79112506,25.5857881 Z" id="Fill-1" fill="#60B39A"></path>
                    <path d="M5.79112506,32.162333 L52.1201255,32.162333 L52.1201255,29.2609204 L9.26580009,29.2609204 L5.79112506,32.162333 Z" id="Fill-2" fill="#60B39A"></path>
                    <path d="M5.79112506,40.1895843 L52.1201255,40.1895843 L52.1201255,37.2881717 L9.26580009,37.2881717 L5.79112506,40.1895843 Z" id="Fill-3" fill="#60B39A"></path>
                    <path d="M5.79112506,49.5708088 L52.1201255,49.5708088 L52.1201255,46.6693962 L9.26580009,46.6693962 L5.79112506,49.5708088 Z" id="Fill-4" fill="#60B39A"></path>
                    <g id="Group-11" transform="translate(0.000000, 0.193814)">
                        <g id="Group-7">
                            <mask id="mask-2" fill="white">
                                <use xlink:href="#path-1"></use>
                            </mask>
                            <g id="Clip-6"></g>
                            <path d="M40.8274316,65.9150464 L33.4550399,65.9150464 L28.0869565,70.9005437 L22.7188732,65.9150464 L15.3464814,65.9150464 C8.99796056,65.9150464 5.5015688,63.3905273 5.5015688,58.8065855 L5.5015688,55.0399716 L50.6723442,19.6656587 L50.6723442,58.8065855 C50.6723442,63.3905273 47.1759525,65.9150464 40.8274316,65.9150464 L40.8274316,65.9150464 Z M49.8963335,16.5910318 L5.5015688,51.3577888 L5.5015688,16.5910318 L49.8963335,16.5910318 Z M2.89556253,7.74172325 L21.1086508,7.74172325 L28.0869565,3.4914439 L35.0652622,7.74172325 L53.2783505,7.74172325 L53.2783505,13.6896191 L2.89556253,13.6896191 L2.89556253,7.74172325 Z M56.173913,4.84031063 L35.8760197,4.84031063 L28.0869565,0.0962108427 L20.2978933,4.84031063 L0,4.84031063 L0,16.5910318 L2.60600628,16.5910318 L2.60600628,58.8065855 C2.60600628,65.0745072 7.36891708,68.816459 15.3464814,68.816459 L21.5832335,68.816459 L28.0869565,74.8563297 L34.5906795,68.816459 L40.8274316,68.816459 C48.8052855,68.816459 53.5679068,65.0745072 53.5679068,58.8065855 L53.5679068,16.5910318 L56.173913,16.5910318 L56.173913,4.84031063 Z" id="Fill-5" fill="#FFE81E" mask="url(#mask-2)"></path>
                        </g>
                        <mask id="mask-4" fill="white">
                            <use xlink:href="#path-3"></use>
                        </mask>
                        <g id="Clip-8"></g>
                        <text id="DOMINGO" mask="url(#mask-4)" font-family="Arial-ItalicMT, Arial" font-size="5.4054161" font-style="italic" font-weight="normal" fill="#BF1912">
                            <tspan x="14.7673689" y="12.5436728">DOMINGO</tspan>
                        </text>
                        <path d="M21.1978342,33.4675915 C21.1978342,36.0304093 18.92974,38.6660525 14.9964079,38.6660525 C13.1866813,38.6660525 11.9320341,37.4085803 11.9320341,36.0304093 C11.9320341,35.3535097 12.5111466,34.7006919 13.2350372,34.7006919 C13.9589278,34.7006919 14.4416181,35.2568927 14.4416181,35.7161863 C14.4416181,36.4656212 14.2484841,37.4570339 16.2029888,37.4570339 C17.9162931,37.4570339 19.1949736,35.547034 19.1949736,34.6040749 C19.1949736,31.726744 13.5969825,30.6387142 13.5969825,26.8668778 C13.5969825,23.0950414 17.385247,22.1280006 18.9537732,22.1280006 C20.5222994,22.1280006 21.1978342,23.0709597 21.1978342,23.8444763 C21.1978342,24.618283 20.7394666,25.0050413 19.9431869,25.0050413 C18.7606392,25.0050413 18.543472,23.5787069 17.2404688,23.5787069 C16.3477669,23.5787069 15.33432,24.7392719 15.33432,25.5371604 C15.33432,27.9549076 21.1978342,30.1068853 21.1978342,33.4675915" id="Fill-9" fill="#BF1912" mask="url(#mask-4)"></path>
                        <path d="M37.6783916,53.0762955 L37.3404794,41.9543105 C37.3404794,41.9543105 27.4978833,41.1805038 27.4978833,47.3637042 C27.4978833,48.5001875 28.214535,49.4916002 28.8179702,49.4916002 C29.3052934,49.4916002 29.5467833,49.2078421 29.5467833,48.8451655 C29.5467833,48.2889647 28.6057255,48.2164294 28.6057255,46.1854405 C28.6057255,44.7106525 32.7075794,42.6491988 34.8552181,42.7762807 C34.0288246,49.2136449 31.730327,56.1953141 28.5814028,56.1953141 C27.4052253,56.1953141 27.6163118,55.5787639 26.9164543,55.5787639 C26.2168864,55.5787639 25.782552,55.9597194 25.782552,56.5095371 C25.782552,57.2290874 26.3616645,57.6460204 27.6163118,57.6460204 C32.2370505,57.6460204 34.0476457,50.9837967 35.6274646,44.8557231 L35.98941,57.3799609 C35.98941,57.3799609 41.4924265,49.4300903 44.4829635,45.5567044 L40.7427654,57.2108085 L45.9067116,57.6460204 L46.027167,56.727143 L42.866371,56.727143 L47.499271,41.688251 C47.499271,41.688251 42.9627932,44.226987 37.6783916,53.0762955" id="Fill-10" fill="#BF1912" mask="url(#mask-4)"></path>
                    </g>
                </g>
            </g>
        </g>
    </g>
</svg>