<?xml version="1.0" encoding="utf-8"?>
<!-- Generator: Adobe Illustrator 18.0.0, SVG Export Plug-In . SVG Version: 6.00 Build 0)  -->
<!DOCTYPE svg PUBLIC "-//W3C//DTD SVG 1.1//EN" "http://www.w3.org/Graphics/SVG/1.1/DTD/svg11.dtd">
<svg version="1.1" xmlns="http://www.w3.org/2000/svg" xmlns:xlink="http://www.w3.org/1999/xlink" x="0px" y="0px"
	 viewBox="0 0 300 85" enable-background="new 0 0 300 85" xml:space="preserve">
<g id="Layer_1">
</g>
<g id="Layer_2">
	<g>
		<path fill="#FFFFFF" d="M4.2,18.5h9.1v1.2H2.8V0.6h1.4V18.5z"/>
		<path fill="#FFFFFF" d="M19.2,19.7h-1.4V0.6h1.4V19.7z"/>
		<path fill="#FFFFFF" d="M39.9,16.5c0.1,0,0.2,0,0.2,0.1l0.5,0.6c-0.4,0.4-0.8,0.8-1.3,1.1c-0.5,0.3-1,0.6-1.5,0.9
			c-0.6,0.2-1.2,0.4-1.8,0.6c-0.7,0.1-1.4,0.2-2.2,0.2c-1.3,0-2.5-0.2-3.6-0.7c-1.1-0.5-2-1.1-2.8-2s-1.4-1.9-1.8-3.1
			c-0.4-1.2-0.7-2.5-0.7-4c0-1.4,0.2-2.8,0.7-4C26,5,26.7,3.9,27.5,3.1c0.8-0.9,1.8-1.5,3-2c1.1-0.5,2.4-0.7,3.8-0.7
			c0.7,0,1.3,0.1,1.9,0.2c0.6,0.1,1.1,0.3,1.6,0.4c0.5,0.2,1,0.4,1.4,0.7c0.4,0.3,0.9,0.6,1.3,1l-0.4,0.6c-0.1,0.1-0.2,0.2-0.3,0.2
			c-0.1,0-0.2,0-0.3-0.1c-0.1-0.1-0.3-0.2-0.5-0.4c-0.2-0.1-0.4-0.3-0.7-0.5c-0.3-0.2-0.6-0.3-1-0.5s-0.8-0.3-1.3-0.4
			c-0.5-0.1-1.1-0.1-1.7-0.1c-1.2,0-2.2,0.2-3.2,0.6c-1,0.4-1.8,1-2.5,1.7c-0.7,0.7-1.2,1.6-1.6,2.7s-0.6,2.2-0.6,3.6
			c0,1.4,0.2,2.6,0.6,3.6c0.4,1.1,0.9,2,1.6,2.7s1.5,1.3,2.4,1.7c0.9,0.4,1.9,0.6,3,0.6c0.7,0,1.3,0,1.8-0.1c0.5-0.1,1-0.2,1.5-0.4
			c0.4-0.2,0.9-0.4,1.3-0.7c0.4-0.3,0.8-0.6,1.1-0.9c0,0,0.1-0.1,0.1-0.1S39.9,16.5,39.9,16.5z"/>
		<path fill="#FFFFFF" d="M57.2,0.6v1.1H47.1v7.7h8.4v1.1h-8.4v8h10.1v1.1H45.7V0.6H57.2z"/>
		<path fill="#FFFFFF" d="M79.4,10.1c0,1.5-0.2,2.8-0.7,4c-0.4,1.2-1.1,2.2-1.9,3.1c-0.8,0.9-1.8,1.5-2.9,2
			c-1.1,0.5-2.4,0.7-3.7,0.7c-1.3,0-2.6-0.2-3.7-0.7c-1.1-0.5-2.1-1.1-2.9-2c-0.8-0.9-1.4-1.9-1.9-3.1c-0.4-1.2-0.7-2.5-0.7-4
			c0-1.5,0.2-2.8,0.7-4c0.4-1.2,1.1-2.2,1.9-3.1c0.8-0.9,1.8-1.5,2.9-2c1.1-0.5,2.3-0.7,3.7-0.7c1.4,0,2.6,0.2,3.7,0.7
			c1.1,0.5,2.1,1.1,2.9,2c0.8,0.9,1.4,1.9,1.9,3.1C79.2,7.3,79.4,8.7,79.4,10.1z M78,10.1c0-1.3-0.2-2.5-0.6-3.6
			c-0.4-1.1-0.9-2-1.6-2.7c-0.7-0.7-1.5-1.3-2.4-1.7c-0.9-0.4-2-0.6-3.1-0.6c-1.1,0-2.2,0.2-3.1,0.6c-0.9,0.4-1.8,1-2.4,1.7
			c-0.7,0.7-1.2,1.6-1.6,2.7s-0.6,2.3-0.6,3.6c0,1.3,0.2,2.5,0.6,3.6c0.4,1.1,0.9,2,1.6,2.7c0.7,0.7,1.5,1.3,2.4,1.7
			c0.9,0.4,2,0.6,3.1,0.6c1.2,0,2.2-0.2,3.1-0.6c0.9-0.4,1.8-0.9,2.4-1.7c0.7-0.7,1.2-1.6,1.6-2.7C77.8,12.7,78,11.5,78,10.1z"/>
		<path fill="#FFFFFF" d="M98.5,19.7V0.6h5.5c1.1,0,2,0.1,2.8,0.3c0.8,0.2,1.5,0.5,2,1c0.5,0.4,0.9,0.9,1.2,1.5s0.4,1.3,0.4,2.1
			c0,0.5-0.1,1-0.3,1.5c-0.2,0.5-0.4,0.9-0.8,1.3c-0.3,0.4-0.7,0.7-1.2,1c-0.5,0.3-1,0.5-1.7,0.7c1.5,0.2,2.7,0.7,3.5,1.5
			c0.8,0.8,1.2,1.8,1.2,3.1c0,0.8-0.1,1.5-0.4,2.2s-0.7,1.2-1.3,1.6c-0.5,0.5-1.2,0.8-2,1c-0.8,0.2-1.7,0.4-2.7,0.4H98.5z M99.9,9.5
			h4.1c0.9,0,1.6-0.1,2.3-0.3s1.1-0.5,1.5-0.9c0.4-0.4,0.7-0.8,0.9-1.3s0.3-0.9,0.3-1.4c0-1.3-0.4-2.3-1.2-2.9c-0.8-0.7-2.1-1-3.8-1
			h-4.1V9.5z M99.9,10.5v8h4.8c1.7,0,3-0.4,3.8-1.1c0.9-0.7,1.3-1.7,1.3-3.1c0-0.6-0.1-1.1-0.3-1.6c-0.2-0.5-0.6-0.9-1-1.2
			c-0.4-0.3-1-0.6-1.6-0.8s-1.3-0.3-2.1-0.3H99.9z"/>
		<path fill="#FFFFFF" d="M118.3,19.7H117V0.6h1.4V19.7z"/>
		<path fill="#FFFFFF" d="M139.1,16.5c0.1,0,0.2,0,0.2,0.1l0.5,0.6c-0.4,0.4-0.8,0.8-1.3,1.1c-0.5,0.3-1,0.6-1.5,0.9
			c-0.6,0.2-1.2,0.4-1.8,0.6c-0.7,0.1-1.4,0.2-2.2,0.2c-1.3,0-2.5-0.2-3.6-0.7c-1.1-0.5-2-1.1-2.8-2s-1.4-1.9-1.8-3.1
			c-0.4-1.2-0.7-2.5-0.7-4c0-1.4,0.2-2.8,0.7-4c0.5-1.2,1.1-2.2,1.9-3.1c0.8-0.9,1.8-1.5,3-2c1.1-0.5,2.4-0.7,3.8-0.7
			c0.7,0,1.3,0.1,1.9,0.2c0.6,0.1,1.1,0.3,1.6,0.4c0.5,0.2,1,0.4,1.4,0.7c0.4,0.3,0.9,0.6,1.3,1l-0.4,0.6c-0.1,0.1-0.2,0.2-0.3,0.2
			c-0.1,0-0.2,0-0.3-0.1c-0.1-0.1-0.3-0.2-0.5-0.4c-0.2-0.1-0.4-0.3-0.7-0.5c-0.3-0.2-0.6-0.3-1-0.5s-0.8-0.3-1.3-0.4
			c-0.5-0.1-1.1-0.1-1.7-0.1c-1.2,0-2.2,0.2-3.2,0.6c-1,0.4-1.8,1-2.5,1.7c-0.7,0.7-1.2,1.6-1.6,2.7s-0.6,2.2-0.6,3.6
			c0,1.4,0.2,2.6,0.6,3.6c0.4,1.1,0.9,2,1.6,2.7s1.5,1.3,2.4,1.7c0.9,0.4,1.9,0.6,3,0.6c0.7,0,1.3,0,1.8-0.1c0.5-0.1,1-0.2,1.5-0.4
			c0.4-0.2,0.9-0.4,1.3-0.7c0.4-0.3,0.8-0.6,1.1-0.9c0,0,0.1-0.1,0.1-0.1S139,16.5,139.1,16.5z"/>
		<path fill="#FFFFFF" d="M156.3,0.6v1.1h-10.1v7.7h8.4v1.1h-8.4v8h10.1v1.1h-11.4V0.6H156.3z"/>
		<path fill="#FFFFFF" d="M162.5,0.6c0.1,0,0.1,0.1,0.2,0.2l12.4,16.6c0-0.3,0-0.5,0-0.8v-16h1.2v19.1h-0.7c-0.2,0-0.4-0.1-0.5-0.3
			L162.7,2.9c0,0.3,0,0.5,0,0.8v16.1h-1.2V0.6h0.7C162.3,0.6,162.4,0.6,162.5,0.6z"/>
		<path fill="#FFFFFF" d="M195.1,0.6v1.2h-6.7v17.9H187V1.8h-6.8V0.6H195.1z"/>
		<path fill="#FFFFFF" d="M210.5,0.6v1.1h-10.1v7.7h8.4v1.1h-8.4v8h10.1v1.1H199V0.6H210.5z"/>
		<path fill="#FFFFFF" d="M216.7,0.6c0.1,0,0.1,0.1,0.2,0.2l12.4,16.6c0-0.3,0-0.5,0-0.8v-16h1.2v19.1h-0.7c-0.2,0-0.4-0.1-0.5-0.3
			L216.8,2.9c0,0.3,0,0.5,0,0.8v16.1h-1.2V0.6h0.7C216.5,0.6,216.6,0.6,216.7,0.6z"/>
		<path fill="#FFFFFF" d="M251.1,19.7h-1.1c-0.1,0-0.2,0-0.3-0.1c-0.1-0.1-0.1-0.2-0.2-0.3l-2.3-5.5h-9.4l-2.2,5.5
			c0,0.1-0.1,0.2-0.2,0.3c-0.1,0.1-0.2,0.1-0.3,0.1h-1.1L242,0.6h1.4L251.1,19.7z M238.4,12.8h8.6L243,3.1c-0.1-0.2-0.1-0.3-0.2-0.5
			c-0.1-0.2-0.1-0.4-0.2-0.6c-0.1,0.2-0.1,0.4-0.2,0.6c-0.1,0.2-0.1,0.4-0.2,0.5L238.4,12.8z"/>
		<path fill="#FFFFFF" d="M256.6,11.1v8.6h-1.4V0.6h4.9c2.2,0,3.9,0.4,4.9,1.3s1.6,2.1,1.6,3.7c0,0.7-0.1,1.4-0.4,2
			s-0.6,1.1-1.1,1.6c-0.5,0.5-1,0.8-1.7,1.1c-0.7,0.3-1.4,0.5-2.3,0.6c0.2,0.1,0.4,0.3,0.6,0.5l6.6,8.3h-1.2c-0.1,0-0.3,0-0.4-0.1
			c-0.1-0.1-0.2-0.1-0.3-0.3l-6.1-7.7c-0.2-0.2-0.3-0.3-0.5-0.4c-0.2-0.1-0.4-0.1-0.8-0.1H256.6z M256.6,10h3.3
			c0.8,0,1.6-0.1,2.3-0.3c0.7-0.2,1.2-0.5,1.7-0.9c0.5-0.4,0.8-0.8,1.1-1.4c0.2-0.5,0.4-1.1,0.4-1.8c0-1.4-0.4-2.4-1.3-3
			c-0.9-0.7-2.2-1-3.9-1h-3.5V10z"/>
		<path fill="#FFFFFF" d="M274.4,19.7h-1.4V0.6h1.4V19.7z"/>
		<path fill="#FFFFFF" d="M298.3,10.1c0,1.5-0.2,2.8-0.7,4c-0.4,1.2-1.1,2.2-1.9,3.1c-0.8,0.9-1.8,1.5-2.9,2s-2.4,0.7-3.7,0.7
			c-1.3,0-2.6-0.2-3.7-0.7c-1.1-0.5-2.1-1.1-2.9-2s-1.4-1.9-1.9-3.1c-0.4-1.2-0.7-2.5-0.7-4c0-1.5,0.2-2.8,0.7-4
			c0.4-1.2,1.1-2.2,1.9-3.1s1.8-1.5,2.9-2c1.1-0.5,2.3-0.7,3.7-0.7c1.4,0,2.6,0.2,3.7,0.7c1.1,0.5,2.1,1.1,2.9,2
			c0.8,0.9,1.4,1.9,1.9,3.1C298.1,7.3,298.3,8.7,298.3,10.1z M296.9,10.1c0-1.3-0.2-2.5-0.6-3.6s-0.9-2-1.6-2.7
			c-0.7-0.7-1.5-1.3-2.4-1.7c-0.9-0.4-2-0.6-3.1-0.6c-1.1,0-2.2,0.2-3.1,0.6c-0.9,0.4-1.8,1-2.4,1.7c-0.7,0.7-1.2,1.6-1.6,2.7
			c-0.4,1.1-0.6,2.3-0.6,3.6c0,1.3,0.2,2.5,0.6,3.6c0.4,1.1,0.9,2,1.6,2.7c0.7,0.7,1.5,1.3,2.4,1.7c0.9,0.4,2,0.6,3.1,0.6
			c1.2,0,2.2-0.2,3.1-0.6c0.9-0.4,1.8-0.9,2.4-1.7c0.7-0.7,1.2-1.6,1.6-2.7C296.7,12.7,296.9,11.5,296.9,10.1z"/>
		<path fill="#FFFFFF" d="M15.4,47.5c0.2,0,0.4,0.1,0.5,0.2l1.4,1.6c-0.8,1-1.8,1.7-2.9,2.3c-1.2,0.5-2.5,0.8-4.2,0.8
			c-1.4,0-2.8-0.2-3.9-0.7c-1.2-0.5-2.1-1.2-3-2.1s-1.4-1.9-1.9-3.2s-0.7-2.6-0.7-4c0-1.5,0.2-2.8,0.7-4c0.5-1.2,1.2-2.3,2.1-3.2
			c0.9-0.9,1.9-1.6,3.2-2.1c1.2-0.5,2.6-0.7,4.1-0.7c1.4,0,2.7,0.2,3.8,0.7c1.1,0.5,2,1.1,2.8,1.8l-1.2,1.7
			c-0.1,0.1-0.2,0.2-0.3,0.3C15.8,37,15.7,37,15.5,37c-0.2,0-0.4-0.1-0.6-0.2c-0.2-0.2-0.5-0.3-0.8-0.5s-0.8-0.4-1.3-0.5
			c-0.5-0.2-1.2-0.2-1.9-0.2c-0.9,0-1.8,0.2-2.5,0.5c-0.8,0.3-1.4,0.8-2,1.4c-0.6,0.6-1,1.3-1.3,2.2s-0.5,1.8-0.5,2.9
			c0,1.1,0.2,2.1,0.5,2.9c0.3,0.9,0.7,1.6,1.3,2.2c0.5,0.6,1.2,1,1.9,1.3c0.7,0.3,1.5,0.5,2.3,0.5c0.5,0,0.9,0,1.3-0.1
			c0.4-0.1,0.8-0.1,1.1-0.3s0.7-0.3,1-0.5c0.3-0.2,0.6-0.4,0.9-0.7c0.1-0.1,0.2-0.1,0.3-0.2C15.2,47.5,15.3,47.5,15.4,47.5z"/>
		<path fill="#FFFFFF" d="M41.5,42.3c0,1.4-0.2,2.8-0.7,4c-0.5,1.2-1.1,2.3-2,3.2c-0.9,0.9-1.9,1.6-3.1,2.1c-1.2,0.5-2.6,0.7-4,0.7
			s-2.8-0.3-4-0.7c-1.2-0.5-2.3-1.2-3.1-2.1c-0.9-0.9-1.5-1.9-2-3.2c-0.5-1.2-0.7-2.5-0.7-4c0-1.4,0.2-2.8,0.7-4
			c0.5-1.2,1.1-2.3,2-3.2c0.9-0.9,1.9-1.6,3.1-2.1c1.2-0.5,2.6-0.7,4-0.7s2.8,0.3,4,0.8c1.2,0.5,2.3,1.2,3.1,2.1
			c0.9,0.9,1.5,1.9,2,3.2C41.3,39.6,41.5,40.9,41.5,42.3z M37.8,42.3c0-1.1-0.1-2-0.4-2.9c-0.3-0.9-0.7-1.6-1.2-2.2
			c-0.5-0.6-1.2-1-1.9-1.4c-0.8-0.3-1.6-0.5-2.6-0.5s-1.8,0.2-2.6,0.5s-1.4,0.8-2,1.4c-0.5,0.6-0.9,1.3-1.2,2.2
			c-0.3,0.9-0.4,1.8-0.4,2.9c0,1.1,0.1,2,0.4,2.9s0.7,1.6,1.2,2.2c0.5,0.6,1.2,1,2,1.4s1.6,0.5,2.6,0.5s1.8-0.2,2.6-0.5
			c0.8-0.3,1.4-0.8,1.9-1.4c0.5-0.6,0.9-1.3,1.2-2.2C37.6,44.4,37.8,43.4,37.8,42.3z"/>
		<path fill="#FFFFFF" d="M50.7,49.1h7.8v3H47.1V32.6h3.6V49.1z"/>
		<path fill="#FFFFFF" d="M76,32.6v2.9h-8.7v5.4h6.8v2.8h-6.8v5.5H76v2.9H63.7V32.6H76z"/>
		<path fill="#FFFFFF" d="M90.8,49.4c0.8,0,1.5-0.1,2.1-0.2s1.2-0.4,1.7-0.6V45h-2.4c-0.2,0-0.4-0.1-0.6-0.2
			c-0.1-0.1-0.2-0.3-0.2-0.5v-2.1H98v7.9c-0.5,0.4-1,0.7-1.5,0.9c-0.5,0.3-1.1,0.5-1.7,0.7s-1.3,0.3-2,0.4c-0.7,0.1-1.4,0.1-2.2,0.1
			c-1.4,0-2.7-0.2-3.9-0.7c-1.2-0.5-2.2-1.2-3.1-2.1c-0.9-0.9-1.6-1.9-2-3.2c-0.5-1.2-0.7-2.6-0.7-4c0-1.5,0.2-2.8,0.7-4
			c0.5-1.2,1.2-2.3,2-3.2c0.9-0.9,1.9-1.6,3.2-2.1c1.3-0.5,2.7-0.7,4.2-0.7c1.6,0,3,0.2,4.1,0.7c1.2,0.5,2.2,1.1,3,1.8l-1.1,1.6
			c-0.2,0.3-0.5,0.5-0.8,0.5c-0.2,0-0.4-0.1-0.7-0.2c-0.3-0.2-0.6-0.3-0.9-0.5c-0.3-0.2-0.6-0.3-1-0.4c-0.4-0.1-0.8-0.2-1.2-0.3
			c-0.5-0.1-1-0.1-1.6-0.1c-1,0-1.8,0.2-2.6,0.5c-0.8,0.3-1.4,0.8-2,1.4c-0.5,0.6-1,1.3-1.3,2.2c-0.3,0.8-0.4,1.8-0.4,2.8
			c0,1.1,0.2,2.1,0.5,3c0.3,0.9,0.8,1.6,1.3,2.2c0.6,0.6,1.2,1.1,2,1.4C89.1,49.3,89.9,49.4,90.8,49.4z"/>
		<path fill="#FFFFFF" d="M108.2,52.1h-3.6V32.6h3.6V52.1z"/>
		<path fill="#FFFFFF" d="M134,42.3c0,1.4-0.2,2.8-0.7,4c-0.5,1.2-1.1,2.3-2,3.2c-0.9,0.9-1.9,1.6-3.1,2.1c-1.2,0.5-2.6,0.7-4,0.7
			s-2.8-0.3-4-0.7c-1.2-0.5-2.3-1.2-3.1-2.1c-0.9-0.9-1.5-1.9-2-3.2c-0.5-1.2-0.7-2.5-0.7-4c0-1.4,0.2-2.8,0.7-4
			c0.5-1.2,1.1-2.3,2-3.2c0.9-0.9,1.9-1.6,3.1-2.1c1.2-0.5,2.6-0.7,4-0.7s2.8,0.3,4,0.8c1.2,0.5,2.3,1.2,3.1,2.1
			c0.9,0.9,1.5,1.9,2,3.2C133.8,39.6,134,40.9,134,42.3z M130.3,42.3c0-1.1-0.1-2-0.4-2.9c-0.3-0.9-0.7-1.6-1.2-2.2
			c-0.5-0.6-1.2-1-1.9-1.4c-0.8-0.3-1.6-0.5-2.6-0.5s-1.8,0.2-2.6,0.5s-1.4,0.8-2,1.4c-0.5,0.6-0.9,1.3-1.2,2.2
			c-0.3,0.9-0.4,1.8-0.4,2.9c0,1.1,0.1,2,0.4,2.9s0.7,1.6,1.2,2.2c0.5,0.6,1.2,1,2,1.4s1.6,0.5,2.6,0.5s1.8-0.2,2.6-0.5
			c0.8-0.3,1.4-0.8,1.9-1.4c0.5-0.6,0.9-1.3,1.2-2.2C130.1,44.4,130.3,43.4,130.3,42.3z"/>
		<path fill="#FFFFFF" d="M166.2,42.3c0,1.4-0.2,2.7-0.7,3.9c-0.5,1.2-1.1,2.2-2,3.1c-0.9,0.9-1.9,1.5-3.1,2c-1.2,0.5-2.6,0.7-4,0.7
			h-7.5V32.6h7.5c1.5,0,2.8,0.2,4,0.7c1.2,0.5,2.3,1.2,3.1,2s1.5,1.9,2,3.1C166,39.6,166.2,40.9,166.2,42.3z M162.5,42.3
			c0-1.1-0.1-2-0.4-2.9c-0.3-0.9-0.7-1.6-1.2-2.2s-1.2-1-1.9-1.4c-0.8-0.3-1.6-0.5-2.6-0.5h-3.8v13.7h3.8c1,0,1.8-0.2,2.6-0.5
			c0.8-0.3,1.4-0.8,1.9-1.4c0.5-0.6,0.9-1.3,1.2-2.2S162.5,43.4,162.5,42.3z"/>
		<path fill="#FFFFFF" d="M190.5,42.3c0,1.4-0.2,2.8-0.7,4c-0.5,1.2-1.1,2.3-2,3.2c-0.9,0.9-1.9,1.6-3.1,2.1c-1.2,0.5-2.6,0.7-4,0.7
			c-1.5,0-2.8-0.3-4-0.7c-1.2-0.5-2.3-1.2-3.1-2.1c-0.9-0.9-1.5-1.9-2-3.2c-0.5-1.2-0.7-2.5-0.7-4c0-1.4,0.2-2.8,0.7-4
			c0.5-1.2,1.1-2.3,2-3.2c0.9-0.9,1.9-1.6,3.1-2.1c1.2-0.5,2.6-0.7,4-0.7c1.5,0,2.8,0.3,4,0.8c1.2,0.5,2.3,1.2,3.1,2.1
			c0.9,0.9,1.5,1.9,2,3.2C190.3,39.6,190.5,40.9,190.5,42.3z M186.8,42.3c0-1.1-0.1-2-0.4-2.9c-0.3-0.9-0.7-1.6-1.2-2.2
			c-0.5-0.6-1.2-1-1.9-1.4c-0.8-0.3-1.6-0.5-2.6-0.5s-1.8,0.2-2.6,0.5c-0.8,0.3-1.4,0.8-2,1.4c-0.5,0.6-0.9,1.3-1.2,2.2
			c-0.3,0.9-0.4,1.8-0.4,2.9c0,1.1,0.1,2,0.4,2.9s0.7,1.6,1.2,2.2c0.5,0.6,1.2,1,2,1.4c0.8,0.3,1.6,0.5,2.6,0.5s1.8-0.2,2.6-0.5
			c0.8-0.3,1.4-0.8,1.9-1.4c0.5-0.6,0.9-1.3,1.2-2.2C186.6,44.4,186.8,43.4,186.8,42.3z"/>
		<path fill="#FFFFFF" d="M206.3,44.9c0.1,0.3,0.3,0.6,0.4,0.9c0.1-0.3,0.3-0.6,0.4-1c0.1-0.3,0.3-0.6,0.4-0.9l5.8-10.8
			c0.1-0.1,0.1-0.2,0.2-0.3s0.2-0.1,0.3-0.2c0.1,0,0.2-0.1,0.3-0.1c0.1,0,0.3,0,0.4,0h2.7v19.5H214V39.5c0-0.2,0-0.5,0-0.8
			s0-0.6,0.1-0.9l-5.9,11.1c-0.1,0.3-0.3,0.4-0.5,0.6s-0.5,0.2-0.8,0.2h-0.5c-0.3,0-0.5-0.1-0.8-0.2s-0.4-0.3-0.5-0.6l-6-11.1
			c0,0.3,0.1,0.6,0.1,0.9c0,0.3,0,0.5,0,0.8v12.6h-3.2V32.6h2.7c0.2,0,0.3,0,0.4,0c0.1,0,0.2,0,0.3,0.1s0.2,0.1,0.3,0.2
			c0.1,0.1,0.2,0.2,0.2,0.3l5.8,10.8C206,44.3,206.2,44.6,206.3,44.9z"/>
		<path fill="#FFFFFF" d="M228,52.1h-3.6V32.6h3.6V52.1z"/>
		<path fill="#FFFFFF" d="M237.4,32.6c0.1,0,0.2,0,0.3,0.1c0.1,0,0.2,0.1,0.3,0.2s0.2,0.2,0.3,0.3l10.2,13.1c0-0.3-0.1-0.6-0.1-0.9
			s0-0.6,0-0.8V32.6h3.2v19.5h-1.9c-0.3,0-0.5,0-0.7-0.1c-0.2-0.1-0.4-0.3-0.6-0.5l-10.2-13c0,0.3,0,0.6,0.1,0.9c0,0.3,0,0.5,0,0.8
			v12h-3.2V32.6h1.9C237.1,32.6,237.3,32.6,237.4,32.6z"/>
		<path fill="#FFFFFF" d="M267.1,49.4c0.8,0,1.5-0.1,2.1-0.2c0.6-0.1,1.2-0.4,1.7-0.6V45h-2.4c-0.2,0-0.4-0.1-0.6-0.2
			c-0.1-0.1-0.2-0.3-0.2-0.5v-2.1h6.5v7.9c-0.5,0.4-1,0.7-1.5,0.9c-0.5,0.3-1.1,0.5-1.7,0.7c-0.6,0.2-1.3,0.3-2,0.4
			c-0.7,0.1-1.4,0.1-2.2,0.1c-1.4,0-2.7-0.2-3.9-0.7c-1.2-0.5-2.2-1.2-3.1-2.1s-1.6-1.9-2-3.2c-0.5-1.2-0.7-2.6-0.7-4
			c0-1.5,0.2-2.8,0.7-4c0.5-1.2,1.2-2.3,2-3.2c0.9-0.9,1.9-1.6,3.2-2.1c1.3-0.5,2.7-0.7,4.2-0.7c1.6,0,3,0.2,4.1,0.7
			c1.2,0.5,2.2,1.1,3,1.8l-1.1,1.6c-0.2,0.3-0.5,0.5-0.8,0.5c-0.2,0-0.4-0.1-0.7-0.2c-0.3-0.2-0.6-0.3-0.9-0.5
			c-0.3-0.2-0.6-0.3-1-0.4s-0.8-0.2-1.2-0.3c-0.5-0.1-1-0.1-1.6-0.1c-1,0-1.8,0.2-2.6,0.5c-0.8,0.3-1.4,0.8-2,1.4s-1,1.3-1.3,2.2
			c-0.3,0.8-0.4,1.8-0.4,2.8c0,1.1,0.2,2.1,0.5,3c0.3,0.9,0.8,1.6,1.3,2.2c0.6,0.6,1.2,1.1,2,1.4S266.2,49.4,267.1,49.4z"/>
		<path fill="#FFFFFF" d="M299.1,42.3c0,1.4-0.2,2.8-0.7,4c-0.5,1.2-1.1,2.3-2,3.2c-0.9,0.9-1.9,1.6-3.1,2.1c-1.2,0.5-2.6,0.7-4,0.7
			c-1.5,0-2.8-0.3-4-0.7c-1.2-0.5-2.3-1.2-3.1-2.1c-0.9-0.9-1.5-1.9-2-3.2c-0.5-1.2-0.7-2.5-0.7-4c0-1.4,0.2-2.8,0.7-4
			c0.5-1.2,1.1-2.3,2-3.2c0.9-0.9,1.9-1.6,3.1-2.1c1.2-0.5,2.6-0.7,4-0.7c1.5,0,2.8,0.3,4,0.8c1.2,0.5,2.3,1.2,3.1,2.1
			c0.9,0.9,1.5,1.9,2,3.2C298.9,39.6,299.1,40.9,299.1,42.3z M295.4,42.3c0-1.1-0.1-2-0.4-2.9c-0.3-0.9-0.7-1.6-1.2-2.2
			c-0.5-0.6-1.2-1-1.9-1.4c-0.8-0.3-1.6-0.5-2.6-0.5s-1.8,0.2-2.6,0.5c-0.8,0.3-1.4,0.8-2,1.4c-0.5,0.6-0.9,1.3-1.2,2.2
			c-0.3,0.9-0.4,1.8-0.4,2.9c0,1.1,0.1,2,0.4,2.9s0.7,1.6,1.2,2.2c0.5,0.6,1.2,1,2,1.4c0.8,0.3,1.6,0.5,2.6,0.5s1.8-0.2,2.6-0.5
			c0.8-0.3,1.4-0.8,1.9-1.4c0.5-0.6,0.9-1.3,1.2-2.2C295.2,44.4,295.4,43.4,295.4,42.3z"/>
		<path fill="#FFFFFF" d="M12.4,68.5c-0.1,0.2-0.2,0.3-0.3,0.4c-0.1,0.1-0.3,0.1-0.5,0.1c-0.2,0-0.4-0.1-0.6-0.2
			c-0.2-0.1-0.5-0.3-0.8-0.5c-0.3-0.2-0.7-0.3-1.1-0.5c-0.4-0.1-0.9-0.2-1.5-0.2c-0.5,0-0.9,0.1-1.3,0.2C6,68,5.7,68.2,5.4,68.4
			c-0.3,0.2-0.4,0.5-0.6,0.8s-0.2,0.6-0.2,1c0,0.5,0.1,0.8,0.4,1.1s0.6,0.6,1,0.8c0.4,0.2,0.9,0.4,1.4,0.6s1.1,0.4,1.7,0.5
			s1.1,0.4,1.7,0.7s1,0.6,1.4,1c0.4,0.4,0.8,0.9,1,1.4c0.3,0.6,0.4,1.3,0.4,2.1c0,0.9-0.2,1.7-0.5,2.5s-0.7,1.4-1.3,2
			c-0.6,0.6-1.3,1-2.1,1.4c-0.8,0.3-1.8,0.5-2.9,0.5c-0.6,0-1.2-0.1-1.8-0.2c-0.6-0.1-1.2-0.3-1.7-0.5c-0.6-0.2-1.1-0.5-1.6-0.8
			c-0.5-0.3-0.9-0.7-1.3-1.1l1.1-1.7c0.1-0.1,0.2-0.2,0.4-0.3C2,80,2.2,80,2.4,80c0.2,0,0.5,0.1,0.7,0.3c0.3,0.2,0.6,0.4,0.9,0.6
			c0.4,0.2,0.8,0.4,1.3,0.6c0.5,0.2,1.1,0.3,1.7,0.3c1,0,1.8-0.2,2.4-0.7c0.6-0.5,0.9-1.2,0.9-2.1c0-0.5-0.1-0.9-0.4-1.3
			c-0.3-0.3-0.6-0.6-1-0.8c-0.4-0.2-0.9-0.4-1.4-0.6c-0.5-0.2-1.1-0.3-1.6-0.5c-0.6-0.2-1.1-0.4-1.6-0.6s-1-0.6-1.4-1
			s-0.8-0.9-1-1.5s-0.4-1.4-0.4-2.2c0-0.7,0.1-1.4,0.4-2.1C2,67.6,2.4,67,2.9,66.5c0.5-0.5,1.2-0.9,2-1.3c0.8-0.3,1.7-0.5,2.7-0.5
			c1.2,0,2.2,0.2,3.2,0.5c1,0.4,1.8,0.9,2.5,1.5L12.4,68.5z"/>
		<path fill="#FFFFFF" d="M45.7,84.5h-2.8c-0.3,0-0.6-0.1-0.8-0.2c-0.2-0.2-0.3-0.4-0.4-0.6l-1.5-4h-8.1l-1.5,4
			c-0.1,0.2-0.2,0.4-0.4,0.6c-0.2,0.2-0.5,0.3-0.8,0.3h-2.8L34.3,65H38L45.7,84.5z M33.1,77.1h6.2l-2.4-6.5c-0.1-0.3-0.2-0.6-0.4-1
			c-0.1-0.4-0.3-0.8-0.4-1.3c-0.1,0.5-0.3,0.9-0.4,1.3c-0.1,0.4-0.2,0.7-0.4,1L33.1,77.1z"/>
		<path fill="#FFFFFF" d="M62.1,65c0.1,0,0.2,0,0.3,0.1c0.1,0,0.2,0.1,0.2,0.2s0.2,0.2,0.3,0.3l10.2,13.1c0-0.3-0.1-0.6-0.1-0.9
			s0-0.6,0-0.8V65h3.2v19.5h-1.9c-0.3,0-0.5,0-0.7-0.1s-0.4-0.3-0.6-0.5l-10.2-13c0,0.3,0,0.6,0.1,0.9c0,0.3,0,0.5,0,0.8v12h-3.2V65
			h1.9C61.9,65,62,65,62.1,65z"/>
		<path fill="#FFFFFF" d="M106.1,65v3h-5.9v16.5h-3.6V68h-5.9v-3H106.1z"/>
		<path fill="#FFFFFF" d="M135.7,84.5h-2.8c-0.3,0-0.6-0.1-0.8-0.2c-0.2-0.2-0.3-0.4-0.4-0.6l-1.5-4h-8.1l-1.5,4
			c-0.1,0.2-0.2,0.4-0.4,0.6c-0.2,0.2-0.5,0.3-0.8,0.3h-2.8l7.7-19.5h3.7L135.7,84.5z M123,77.1h6.2l-2.4-6.5
			c-0.1-0.3-0.2-0.6-0.4-1c-0.1-0.4-0.3-0.8-0.4-1.3c-0.1,0.5-0.3,0.9-0.4,1.3c-0.1,0.4-0.2,0.7-0.4,1L123,77.1z"/>
		<path fill="#FFFFFF" d="M174.2,77.3c0.1,0.3,0.3,0.6,0.4,0.9c0.1-0.3,0.3-0.6,0.4-1c0.1-0.3,0.3-0.6,0.4-0.9l5.8-10.8
			c0.1-0.1,0.1-0.2,0.2-0.3s0.2-0.1,0.3-0.2c0.1,0,0.2-0.1,0.3-0.1c0.1,0,0.3,0,0.4,0h2.7v19.5h-3.2V71.9c0-0.2,0-0.5,0-0.8
			c0-0.3,0-0.6,0.1-0.8l-5.9,11.1c-0.1,0.3-0.3,0.4-0.5,0.6s-0.5,0.2-0.8,0.2h-0.5c-0.3,0-0.5-0.1-0.8-0.2s-0.4-0.3-0.5-0.6l-6-11.1
			c0,0.3,0.1,0.6,0.1,0.9c0,0.3,0,0.5,0,0.8v12.6H164V65h2.7c0.2,0,0.3,0,0.4,0c0.1,0,0.2,0,0.3,0.1c0.1,0,0.2,0.1,0.3,0.2
			c0.1,0.1,0.2,0.2,0.2,0.3l5.8,10.8C173.9,76.7,174.1,77,174.2,77.3z"/>
		<path fill="#FFFFFF" d="M218.3,84.5h-2.8c-0.3,0-0.6-0.1-0.8-0.2c-0.2-0.2-0.3-0.4-0.4-0.6l-1.5-4h-8.1l-1.5,4
			c-0.1,0.2-0.2,0.4-0.4,0.6c-0.2,0.2-0.5,0.3-0.8,0.3h-2.8L207,65h3.7L218.3,84.5z M205.7,77.1h6.2l-2.4-6.5
			c-0.1-0.3-0.2-0.6-0.4-1c-0.1-0.4-0.3-0.8-0.4-1.3c-0.1,0.5-0.3,0.9-0.4,1.3c-0.1,0.4-0.2,0.7-0.4,1L205.7,77.1z"/>
		<path fill="#FFFFFF" d="M236.2,76.9v7.6h-3.6V65h6c1.3,0,2.5,0.1,3.4,0.4c1,0.3,1.7,0.7,2.3,1.2s1.1,1.1,1.3,1.8
			c0.3,0.7,0.4,1.4,0.4,2.3c0,0.7-0.1,1.3-0.3,1.9s-0.5,1.1-0.8,1.6c-0.4,0.5-0.8,0.9-1.4,1.3c-0.5,0.4-1.1,0.6-1.8,0.9
			c0.5,0.3,0.9,0.6,1.2,1.1l4.9,7.2h-3.3c-0.3,0-0.6-0.1-0.8-0.2c-0.2-0.1-0.4-0.3-0.6-0.5l-4.1-6.3c-0.2-0.2-0.3-0.4-0.5-0.5
			c-0.2-0.1-0.5-0.1-0.8-0.1H236.2z M236.2,74.3h2.3c0.7,0,1.3-0.1,1.8-0.3c0.5-0.2,0.9-0.4,1.3-0.7s0.6-0.7,0.7-1.1
			c0.2-0.4,0.2-0.9,0.2-1.4c0-1-0.3-1.8-1-2.3c-0.7-0.5-1.6-0.8-3-0.8h-2.3V74.3z"/>
		<path fill="#FFFFFF" d="M269.7,60.3l-4,2.9c-0.1,0.1-0.2,0.1-0.3,0.2c-0.1,0-0.2,0.1-0.3,0.1c-0.1,0-0.2,0-0.3,0.1s-0.2,0-0.3,0
			H262l2.6-2.7c0.1-0.1,0.2-0.2,0.3-0.3s0.2-0.1,0.3-0.2c0.1,0,0.2-0.1,0.3-0.1c0.1,0,0.3,0,0.5,0H269.7z M266.3,84.5h-3.6V65h3.6
			V84.5z"/>
		<path fill="#FFFFFF" d="M300,84.5h-2.8c-0.3,0-0.6-0.1-0.8-0.2c-0.2-0.2-0.3-0.4-0.4-0.6l-1.5-4h-8.1l-1.5,4
			c-0.1,0.2-0.2,0.4-0.4,0.6c-0.2,0.2-0.5,0.3-0.8,0.3h-2.8l7.7-19.5h3.7L300,84.5z M287.3,77.1h6.2l-2.4-6.5
			c-0.1-0.3-0.2-0.6-0.4-1c-0.1-0.4-0.3-0.8-0.4-1.3c-0.1,0.5-0.3,0.9-0.4,1.3c-0.1,0.4-0.2,0.7-0.4,1L287.3,77.1z"/>
	</g>
</g>
</svg>
